<svg xmlns="http://www.w3.org/2000/svg" xmlns:xlink="http://www.w3.org/1999/xlink" width="500" zoomAndPan="magnify" viewBox="0 0 375 374.999991" height="500" preserveAspectRatio="xMidYMid meet" version="1.0"><defs><clipPath id="bfc9d6ee6c"><path d="M 58.402344 133.871094 L 198.652344 133.871094 L 198.652344 241.121094 L 58.402344 241.121094 Z M 58.402344 133.871094 " clip-rule="nonzero"/></clipPath><clipPath id="14b5b5b0b6"><path d="M 58.121094 241.128906 L 198.371094 241.128906 L 198.371094 348.378906 L 58.121094 348.378906 Z M 58.121094 241.128906 " clip-rule="nonzero"/></clipPath><clipPath id="6d05686581"><path d="M 0.402344 0.128906 L 140.371094 0.128906 L 140.371094 107.378906 L 0.402344 107.378906 Z M 0.402344 0.128906 " clip-rule="nonzero"/></clipPath><clipPath id="c86fed15be"><rect x="0" width="141" y="0" height="108"/></clipPath><clipPath id="fa68b42c8e"><path d="M 176.621094 26.613281 L 316.871094 26.613281 L 316.871094 133.863281 L 176.621094 133.863281 Z M 176.621094 26.613281 " clip-rule="nonzero"/></clipPath><clipPath id="0fa9e4d5ee"><path d="M 0.621094 0.613281 L 140.558594 0.613281 L 140.558594 107.863281 L 0.621094 107.863281 Z M 0.621094 0.613281 " clip-rule="nonzero"/></clipPath><clipPath id="28a2ca2fde"><rect x="0" width="141" y="0" height="108"/></clipPath><clipPath id="bca1ba9c91"><path d="M 176.339844 133.871094 L 316.589844 133.871094 L 316.589844 241.121094 L 176.339844 241.121094 Z M 176.339844 133.871094 " clip-rule="nonzero"/></clipPath></defs><g clip-path="url(#bfc9d6ee6c)"><path fill="#00bf63" d="M 157.746094 241.121094 L 198.234375 133.871094 L 99.027344 133.871094 L 58.542969 241.121094 Z M 157.746094 241.121094 " fill-opacity="1" fill-rule="nonzero"/></g><g clip-path="url(#14b5b5b0b6)"><g transform="matrix(1, 0, 0, 1, 58, 241)"><g clip-path="url(#c86fed15be)"><g clip-path="url(#6d05686581)"><path fill="#14673a" d="M 99.746094 0.128906 L 140.234375 107.378906 L 41.027344 107.378906 L 0.542969 0.128906 Z M 99.746094 0.128906 " fill-opacity="1" fill-rule="nonzero"/></g></g></g></g><g clip-path="url(#fa68b42c8e)"><g transform="matrix(1, 0, 0, 1, 176, 26)"><g clip-path="url(#28a2ca2fde)"><g clip-path="url(#0fa9e4d5ee)"><path fill="#00bf63" d="M 41.246094 107.863281 L 0.757812 0.613281 L 99.964844 0.613281 L 140.453125 107.863281 Z M 41.246094 107.863281 " fill-opacity="1" fill-rule="nonzero"/></g></g></g></g><g clip-path="url(#bca1ba9c91)"><path fill="#14673a" d="M 217.246094 133.871094 L 176.757812 241.121094 L 275.964844 241.121094 L 316.453125 133.871094 Z M 217.246094 133.871094 " fill-opacity="1" fill-rule="nonzero"/></g></svg>