<svg xmlns="http://www.w3.org/2000/svg" xmlns:xlink="http://www.w3.org/1999/xlink" width="320" zoomAndPan="magnify" viewBox="0 0 240 60" height="80" preserveAspectRatio="xMidYMid meet" version="1.0"><defs><g/><clipPath id="cd9e0865ee"><path d="M 2.703125 20.300781 L 28 20.300781 L 28 39.800781 L 2.703125 39.800781 Z M 2.703125 20.300781 " clip-rule="nonzero"/></clipPath><clipPath id="8a1ff4b822"><path d="M 2.515625 39.59375 L 28.015625 39.59375 L 28.015625 59.09375 L 2.515625 59.09375 Z M 2.515625 39.59375 " clip-rule="nonzero"/></clipPath><clipPath id="c7c1b7d229"><path d="M 0.703125 0.601562 L 26 0.601562 L 26 20.09375 L 0.703125 20.09375 Z M 0.703125 0.601562 " clip-rule="nonzero"/></clipPath><clipPath id="cf9c3bae40"><rect x="0" width="27" y="0" height="21"/></clipPath><clipPath id="bd8645b728"><path d="M 24.082031 0.902344 L 49.582031 0.902344 L 49.582031 20.402344 L 24.082031 20.402344 Z M 24.082031 0.902344 " clip-rule="nonzero"/></clipPath><clipPath id="d7ec3fce17"><path d="M 0.0820312 0.902344 L 25.394531 0.902344 L 25.394531 20.398438 L 0.0820312 20.398438 Z M 0.0820312 0.902344 " clip-rule="nonzero"/></clipPath><clipPath id="1ea18091cc"><rect x="0" width="26" y="0" height="21"/></clipPath><clipPath id="eab1cf0061"><path d="M 24 20.195312 L 49.394531 20.195312 L 49.394531 39.695312 L 24 39.695312 Z M 24 20.195312 " clip-rule="nonzero"/></clipPath><clipPath id="f1d38972d0"><rect x="0" width="172" y="0" height="39"/></clipPath></defs><g clip-path="url(#cd9e0865ee)"><path fill="#00bf63" d="M 20.667969 39.695312 L 27.988281 20.300781 L 10.046875 20.300781 L 2.726562 39.695312 Z M 20.667969 39.695312 " fill-opacity="1" fill-rule="nonzero"/></g><g clip-path="url(#8a1ff4b822)"><g transform="matrix(1, 0, 0, 1, 2, 39)"><g clip-path="url(#cf9c3bae40)"><g clip-path="url(#c7c1b7d229)"><path fill="#14673a" d="M 18.667969 0.699219 L 25.988281 20.09375 L 8.046875 20.09375 L 0.726562 0.699219 Z M 18.667969 0.699219 " fill-opacity="1" fill-rule="nonzero"/></g></g></g></g><g clip-path="url(#bd8645b728)"><g transform="matrix(1, 0, 0, 1, 24, -0.000000000000001443)"><g clip-path="url(#1ea18091cc)"><g clip-path="url(#d7ec3fce17)"><path fill="#00bf63" d="M 7.429688 20.296875 L 0.109375 0.902344 L 18.046875 0.902344 L 25.371094 20.296875 Z M 7.429688 20.296875 " fill-opacity="1" fill-rule="nonzero"/></g></g></g></g><g clip-path="url(#eab1cf0061)"><path fill="#14673a" d="M 31.429688 20.300781 L 24.109375 39.695312 L 42.046875 39.695312 L 49.371094 20.300781 Z M 31.429688 20.300781 " fill-opacity="1" fill-rule="nonzero"/></g><g transform="matrix(1, 0, 0, 1, 65, 11)"><g clip-path="url(#f1d38972d0)"><g fill="#0b1f33" fill-opacity="1"><g transform="translate(0.899201, 29.31874)"><g><path d="M 6.828125 0 L 6.828125 -17.640625 L 0.796875 -17.640625 L 0.796875 -20.6875 L 16.671875 -20.6875 L 16.671875 -17.640625 L 10.609375 -17.640625 L 10.609375 0 Z M 6.828125 0 "/></g></g></g><g fill="#0b1f33" fill-opacity="1"><g transform="translate(17.49802, 29.31874)"><g><path d="M 1.921875 0 L 1.921875 -21.28125 L 5.703125 -21.28125 L 5.703125 -12.40625 C 6.191406 -13.21875 6.851562 -13.851562 7.6875 -14.3125 C 8.53125 -14.78125 9.492188 -15.015625 10.578125 -15.015625 C 12.390625 -15.015625 13.789062 -14.441406 14.78125 -13.296875 C 15.78125 -12.148438 16.28125 -10.472656 16.28125 -8.265625 L 16.28125 0 L 12.53125 0 L 12.53125 -7.921875 C 12.53125 -9.179688 12.273438 -10.144531 11.765625 -10.8125 C 11.265625 -11.476562 10.472656 -11.8125 9.390625 -11.8125 C 8.328125 -11.8125 7.445312 -11.4375 6.75 -10.6875 C 6.050781 -9.945312 5.703125 -8.90625 5.703125 -7.5625 L 5.703125 0 Z M 1.921875 0 "/></g></g></g><g fill="#0b1f33" fill-opacity="1"><g transform="translate(34.598953, 29.31874)"><g><path d="M 9.046875 0.359375 C 7.566406 0.359375 6.253906 0.0429688 5.109375 -0.578125 C 3.960938 -1.210938 3.066406 -2.101562 2.421875 -3.25 C 1.773438 -4.394531 1.453125 -5.710938 1.453125 -7.203125 C 1.453125 -8.722656 1.769531 -10.070312 2.40625 -11.25 C 3.050781 -12.4375 3.9375 -13.359375 5.0625 -14.015625 C 6.195312 -14.679688 7.535156 -15.015625 9.078125 -15.015625 C 10.515625 -15.015625 11.78125 -14.695312 12.875 -14.0625 C 13.976562 -13.4375 14.84375 -12.578125 15.46875 -11.484375 C 16.09375 -10.390625 16.40625 -9.171875 16.40625 -7.828125 C 16.40625 -7.609375 16.398438 -7.378906 16.390625 -7.140625 C 16.378906 -6.910156 16.363281 -6.664062 16.34375 -6.40625 L 5.203125 -6.40625 C 5.273438 -5.269531 5.671875 -4.375 6.390625 -3.71875 C 7.109375 -3.070312 7.984375 -2.75 9.015625 -2.75 C 9.785156 -2.75 10.429688 -2.921875 10.953125 -3.265625 C 11.472656 -3.609375 11.859375 -4.054688 12.109375 -4.609375 L 15.953125 -4.609375 C 15.679688 -3.679688 15.222656 -2.835938 14.578125 -2.078125 C 13.941406 -1.328125 13.15625 -0.734375 12.21875 -0.296875 C 11.28125 0.136719 10.222656 0.359375 9.046875 0.359375 Z M 9.078125 -11.9375 C 8.148438 -11.9375 7.332031 -11.675781 6.625 -11.15625 C 5.914062 -10.632812 5.460938 -9.84375 5.265625 -8.78125 L 12.5625 -8.78125 C 12.5 -9.738281 12.140625 -10.503906 11.484375 -11.078125 C 10.835938 -11.648438 10.035156 -11.9375 9.078125 -11.9375 Z M 9.078125 -11.9375 "/></g></g></g><g fill="#0b1f33" fill-opacity="1"><g transform="translate(51.404519, 29.31874)"><g/></g></g><g fill="#16a34a" fill-opacity="1"><g transform="translate(57.584362, 29.31874)"><g><path d="M 2.015625 0 L 2.015625 -20.6875 L 9.609375 -20.6875 C 11.253906 -20.6875 12.613281 -20.40625 13.6875 -19.84375 C 14.769531 -19.28125 15.578125 -18.519531 16.109375 -17.5625 C 16.640625 -16.601562 16.90625 -15.546875 16.90625 -14.390625 C 16.90625 -13.128906 16.570312 -11.972656 15.90625 -10.921875 C 15.25 -9.878906 14.222656 -9.125 12.828125 -8.65625 L 17.109375 0 L 12.765625 0 L 8.921875 -8.15625 L 5.796875 -8.15625 L 5.796875 0 Z M 5.796875 -10.9375 L 9.359375 -10.9375 C 10.617188 -10.9375 11.546875 -11.238281 12.140625 -11.84375 C 12.734375 -12.457031 13.03125 -13.265625 13.03125 -14.265625 C 13.03125 -15.253906 12.738281 -16.039062 12.15625 -16.625 C 11.570312 -17.21875 10.632812 -17.515625 9.34375 -17.515625 L 5.796875 -17.515625 Z M 5.796875 -10.9375 "/></g></g></g><g fill="#16a34a" fill-opacity="1"><g transform="translate(75.12833, 29.31874)"><g><path d="M 3.953125 -16.9375 C 3.265625 -16.9375 2.695312 -17.140625 2.25 -17.546875 C 1.8125 -17.960938 1.59375 -18.484375 1.59375 -19.109375 C 1.59375 -19.742188 1.8125 -20.265625 2.25 -20.671875 C 2.695312 -21.078125 3.265625 -21.28125 3.953125 -21.28125 C 4.648438 -21.28125 5.21875 -21.078125 5.65625 -20.671875 C 6.101562 -20.265625 6.328125 -19.742188 6.328125 -19.109375 C 6.328125 -18.484375 6.101562 -17.960938 5.65625 -17.546875 C 5.21875 -17.140625 4.648438 -16.9375 3.953125 -16.9375 Z M 2.0625 0 L 2.0625 -14.65625 L 5.84375 -14.65625 L 5.84375 0 Z M 2.0625 0 "/></g></g></g><g fill="#16a34a" fill-opacity="1"><g transform="translate(82.157579, 29.31874)"><g><path d="M 8.125 -4.375 C 7.414062 -4.375 6.753906 -4.453125 6.140625 -4.609375 L 5.046875 -3.515625 C 5.390625 -3.335938 5.84375 -3.1875 6.40625 -3.0625 C 6.976562 -2.945312 7.90625 -2.832031 9.1875 -2.71875 C 11.132812 -2.539062 12.550781 -2.078125 13.4375 -1.328125 C 14.332031 -0.578125 14.78125 0.453125 14.78125 1.765625 C 14.78125 2.640625 14.539062 3.460938 14.0625 4.234375 C 13.59375 5.015625 12.863281 5.644531 11.875 6.125 C 10.894531 6.613281 9.632812 6.859375 8.09375 6.859375 C 6.007812 6.859375 4.328125 6.46875 3.046875 5.6875 C 1.765625 4.90625 1.125 3.738281 1.125 2.1875 C 1.125 0.863281 1.765625 -0.273438 3.046875 -1.234375 C 2.648438 -1.410156 2.304688 -1.597656 2.015625 -1.796875 C 1.734375 -1.992188 1.484375 -2.203125 1.265625 -2.421875 L 1.265625 -3.109375 L 3.84375 -5.828125 C 2.695312 -6.828125 2.125 -8.113281 2.125 -9.6875 C 2.125 -10.675781 2.363281 -11.570312 2.84375 -12.375 C 3.332031 -13.1875 4.019531 -13.828125 4.90625 -14.296875 C 5.789062 -14.773438 6.863281 -15.015625 8.125 -15.015625 C 8.945312 -15.015625 9.71875 -14.894531 10.4375 -14.65625 L 15.984375 -14.65625 L 15.984375 -12.34375 L 13.46875 -12.171875 C 13.863281 -11.421875 14.0625 -10.59375 14.0625 -9.6875 C 14.0625 -8.707031 13.820312 -7.8125 13.34375 -7 C 12.875 -6.195312 12.191406 -5.554688 11.296875 -5.078125 C 10.398438 -4.609375 9.34375 -4.375 8.125 -4.375 Z M 8.125 -7.265625 C 8.894531 -7.265625 9.53125 -7.472656 10.03125 -7.890625 C 10.53125 -8.304688 10.78125 -8.894531 10.78125 -9.65625 C 10.78125 -10.425781 10.53125 -11.019531 10.03125 -11.4375 C 9.53125 -11.851562 8.894531 -12.0625 8.125 -12.0625 C 7.3125 -12.0625 6.660156 -11.851562 6.171875 -11.4375 C 5.679688 -11.019531 5.4375 -10.425781 5.4375 -9.65625 C 5.4375 -8.894531 5.679688 -8.304688 6.171875 -7.890625 C 6.660156 -7.472656 7.3125 -7.265625 8.125 -7.265625 Z M 4.578125 1.796875 C 4.578125 2.523438 4.914062 3.070312 5.59375 3.4375 C 6.28125 3.800781 7.113281 3.984375 8.09375 3.984375 C 9.039062 3.984375 9.804688 3.789062 10.390625 3.40625 C 10.984375 3.03125 11.28125 2.515625 11.28125 1.859375 C 11.28125 1.328125 11.085938 0.882812 10.703125 0.53125 C 10.328125 0.175781 9.566406 -0.0390625 8.421875 -0.125 C 7.609375 -0.175781 6.859375 -0.265625 6.171875 -0.390625 C 5.597656 -0.0664062 5.1875 0.28125 4.9375 0.65625 C 4.695312 1.03125 4.578125 1.410156 4.578125 1.796875 Z M 4.578125 1.796875 "/></g></g></g><g fill="#16a34a" fill-opacity="1"><g transform="translate(98.106616, 29.31874)"><g><path d="M 1.921875 0 L 1.921875 -21.28125 L 5.703125 -21.28125 L 5.703125 -12.40625 C 6.191406 -13.21875 6.851562 -13.851562 7.6875 -14.3125 C 8.53125 -14.78125 9.492188 -15.015625 10.578125 -15.015625 C 12.390625 -15.015625 13.789062 -14.441406 14.78125 -13.296875 C 15.78125 -12.148438 16.28125 -10.472656 16.28125 -8.265625 L 16.28125 0 L 12.53125 0 L 12.53125 -7.921875 C 12.53125 -9.179688 12.273438 -10.144531 11.765625 -10.8125 C 11.265625 -11.476562 10.472656 -11.8125 9.390625 -11.8125 C 8.328125 -11.8125 7.445312 -11.4375 6.75 -10.6875 C 6.050781 -9.945312 5.703125 -8.90625 5.703125 -7.5625 L 5.703125 0 Z M 1.921875 0 "/></g></g></g><g fill="#16a34a" fill-opacity="1"><g transform="translate(115.207549, 29.31874)"><g><path d="M 8.453125 0 C 6.910156 0 5.675781 -0.375 4.75 -1.125 C 3.832031 -1.875 3.375 -3.203125 3.375 -5.109375 L 3.375 -11.5 L 0.859375 -11.5 L 0.859375 -14.65625 L 3.375 -14.65625 L 3.8125 -18.578125 L 7.15625 -18.578125 L 7.15625 -14.65625 L 11.109375 -14.65625 L 11.109375 -11.5 L 7.15625 -11.5 L 7.15625 -5.078125 C 7.15625 -4.367188 7.304688 -3.878906 7.609375 -3.609375 C 7.910156 -3.347656 8.4375 -3.21875 9.1875 -3.21875 L 11.015625 -3.21875 L 11.015625 0 Z M 8.453125 0 "/></g></g></g><g fill="#14673a" fill-opacity="1"><g transform="translate(126.790467, 29.31874)"><g/></g></g><g fill="#0b1f33" fill-opacity="1"><g transform="translate(132.968292, 29.31874)"><g><path d="M 2.015625 0 L 2.015625 -20.6875 L 10.3125 -20.6875 C 12.457031 -20.6875 14.097656 -20.1875 15.234375 -19.1875 C 16.367188 -18.195312 16.9375 -16.921875 16.9375 -15.359375 C 16.9375 -14.066406 16.582031 -13.03125 15.875 -12.25 C 15.175781 -11.46875 14.328125 -10.941406 13.328125 -10.671875 C 14.503906 -10.429688 15.476562 -9.84375 16.25 -8.90625 C 17.019531 -7.96875 17.40625 -6.878906 17.40625 -5.640625 C 17.40625 -4.003906 16.8125 -2.65625 15.625 -1.59375 C 14.445312 -0.53125 12.773438 0 10.609375 0 Z M 5.796875 -12 L 9.75 -12 C 10.8125 -12 11.628906 -12.242188 12.203125 -12.734375 C 12.773438 -13.222656 13.0625 -13.921875 13.0625 -14.828125 C 13.0625 -15.691406 12.78125 -16.375 12.21875 -16.875 C 11.65625 -17.382812 10.8125 -17.640625 9.6875 -17.640625 L 5.796875 -17.640625 Z M 5.796875 -3.078125 L 10.015625 -3.078125 C 11.140625 -3.078125 12.007812 -3.335938 12.625 -3.859375 C 13.25 -4.378906 13.5625 -5.113281 13.5625 -6.0625 C 13.5625 -7.019531 13.234375 -7.773438 12.578125 -8.328125 C 11.929688 -8.878906 11.054688 -9.15625 9.953125 -9.15625 L 5.796875 -9.15625 Z M 5.796875 -3.078125 "/></g></g></g><g fill="#0b1f33" fill-opacity="1"><g transform="translate(150.748546, 29.31874)"><g><path d="M 3.953125 -16.9375 C 3.265625 -16.9375 2.695312 -17.140625 2.25 -17.546875 C 1.8125 -17.960938 1.59375 -18.484375 1.59375 -19.109375 C 1.59375 -19.742188 1.8125 -20.265625 2.25 -20.671875 C 2.695312 -21.078125 3.265625 -21.28125 3.953125 -21.28125 C 4.648438 -21.28125 5.21875 -21.078125 5.65625 -20.671875 C 6.101562 -20.265625 6.328125 -19.742188 6.328125 -19.109375 C 6.328125 -18.484375 6.101562 -17.960938 5.65625 -17.546875 C 5.21875 -17.140625 4.648438 -16.9375 3.953125 -16.9375 Z M 2.0625 0 L 2.0625 -14.65625 L 5.84375 -14.65625 L 5.84375 0 Z M 2.0625 0 "/></g></g></g><g fill="#0b1f33" fill-opacity="1"><g transform="translate(157.777795, 29.31874)"><g><path d="M 1.921875 0 L 1.921875 -21.28125 L 5.703125 -21.28125 L 5.703125 0 Z M 1.921875 0 "/></g></g></g><g fill="#0b1f33" fill-opacity="1"><g transform="translate(164.570758, 29.31874)"><g><path d="M 1.921875 0 L 1.921875 -21.28125 L 5.703125 -21.28125 L 5.703125 0 Z M 1.921875 0 "/></g></g></g></g></g></svg>